<svg xmlns="http://www.w3.org/2000/svg" xmlns:xlink="http://www.w3.org/1999/xlink" width="139.346" height="103.529" viewBox="0 0 139.346 103.529">
    <defs>
        <linearGradient id="prefix__linear-gradient" x1="51.947" x2="51.947" y1="249.546" y2="250.546" gradientUnits="objectBoundingBox">
            <stop offset="0" stop-color="gray" stop-opacity=".251"/>
            <stop offset=".54" stop-color="gray" stop-opacity=".122"/>
            <stop offset="1" stop-color="gray" stop-opacity=".102"/>
        </linearGradient>
        <linearGradient id="prefix__linear-gradient-2" x1="36.969" x2="36.969" y1="162.363" y2="163.356" xlink:href="#prefix__linear-gradient"/>
        <style>
            .prefix__cls-1{fill:#007ce0;opacity:.1}.prefix__cls-3{fill:#26529a}.prefix__cls-7{fill:#48c020}.prefix__cls-9{fill:#ffd037}
        </style>
    </defs>
    <g id="prefix__Group_14102" data-name="Group 14102" transform="translate(-.015 .001)">
        <path id="prefix__Path_5913" d="M87.753 14.309c-8.314-.288-16.232-2.972-23.793-5.909S48.91 2.211 40.79.654C35.571-.347 29.6-.488 25.4 2.311c-4.048 2.7-5.355 7.34-6.058 11.654-.529 3.245-.84 6.661.609 9.7 1.007 2.109 2.794 3.882 4.028 5.9 4.3 7.031 1.26 15.7-3.4 22.562-2.184 3.219-4.721 6.294-6.408 9.718S11.709 69.2 13.185 72.7c1.462 3.468 4.947 6.068 8.722 7.9 7.668 3.719 16.7 4.783 25.513 5.386 19.5 1.333 39.111.757 58.666.177a172.012 172.012 0 0 0 21.625-1.551c3.954-.62 8.035-1.607 10.906-3.982a9.133 9.133 0 0 0 2.1-11.931c-4.1-6.357-15.415-7.936-18.281-14.759-1.575-3.756.042-7.939 2.333-11.421 4.912-7.472 13.145-14.028 13.579-22.568.3-5.865-3.661-11.74-9.781-14.516-6.414-2.908-15.31-2.542-20.04 2.272-4.869 4.949-13.432 6.858-20.774 6.602z" class="prefix__cls-1" data-name="Path 5913" transform="translate(-10.797)"/>
        <ellipse id="prefix__Ellipse_1124" cx="57.419" cy="5.282" class="prefix__cls-1" data-name="Ellipse 1124" rx="57.419" ry="5.282" transform="translate(10.656 89.068)"/>
        <circle id="prefix__Ellipse_1125" cx="39.63" cy="39.63" r="39.63" data-name="Ellipse 1125" transform="translate(25.093 18.087)" style="fill:#007ce0"/>
        <ellipse id="prefix__Ellipse_1126" cx="4.109" cy="5.382" class="prefix__cls-3" data-name="Ellipse 1126" rx="4.109" ry="5.382" transform="translate(49.996 44.652)"/>
        <ellipse id="prefix__Ellipse_1127" cx="4.109" cy="5.382" class="prefix__cls-3" data-name="Ellipse 1127" rx="4.109" ry="5.382" transform="translate(71.231 44.652)"/>
        <path id="prefix__Path_5914" d="M354.056 494.78c0 7.727-12.908 20.744-25.931 20.744s-25.435-13.31-25.435-21.038 12.148-.66 25.178-.66 26.188-6.774 26.188.954z" class="prefix__cls-3" data-name="Path 5914" transform="translate(-263.794 -427.816)"/>
        <path id="prefix__Path_5915" d="M326.076 531.58s23.41 5.21 43.079.146c0 0 2.407 0 .763 2.782a4.431 4.431 0 0 1-1.8 1.687c-3.79 1.937-17.829 7.663-40.272.361a4.414 4.414 0 0 1-2.913-2.984c-.259-.955-.145-1.86 1.143-1.992z" data-name="Path 5915" transform="translate(-283.082 -463.295)" style="fill:#f6f8fb"/>
        <path id="prefix__Path_5916" d="M197.554 275.617l-.144-.107a.306.306 0 0 1 .059.1z" data-name="Path 5916" transform="translate(-172.038 -240.12)"/>
        <path id="prefix__Path_5917" d="M195.217 274.256h.086l-.081-.06h.022l-.144-.105a.306.306 0 0 1 .058.1h.032a.283.283 0 0 1 .027.065z" data-name="Path 5917" transform="translate(-170.025 -238.882)"/>
        <path id="prefix__Path_5918" d="M746.673 63.655s-10.815-.651-9.541 6.928a1.842 1.842 0 0 0 .961 1.947s.019-.561 1.11-.371a4.991 4.991 0 0 0 1.174.057 2.441 2.441 0 0 0 1.438-.593s3.041-1.255 4.222-6.225c0 0 .875-1.083.84-1.362l-1.825.778a3.256 3.256 0 0 1 .128 2.411s-.059-2.362-.41-2.312c-.072.012-.949.456-.949.456s1.074 2.294.257 3.962c0 0 .308-2.826-.6-3.8l-1.285.75s1.255 2.37.4 4.3c0 0 .218-2.965-.674-4.118l-1.164.908s1.192 2.344.47 3.942c0 0-.094-3.452-.713-3.712a7.131 7.131 0 0 0-1.173 1.268s.807 1.694.306 2.59c0 0-.307-2.3-.559-2.312a7.633 7.633 0 0 0-1.12 2.569 5.541 5.541 0 0 1 .875-2.714 3.054 3.054 0 0 0-1.554.805s.158-1.078 1.8-1.172a7.009 7.009 0 0 1 1.062-1.225 6.664 6.664 0 0 0-2.631.3 2.958 2.958 0 0 1 2.931-.555l1.156-.938a9.479 9.479 0 0 0-3.07.031s1.052-.9 3.38-.244l1.251-.749a11.479 11.479 0 0 0-2.933-.257 4.5 4.5 0 0 1 3.3.053l.9-.4s-1.346-.265-1.741-.306-.416-.15-.416-.15a4.66 4.66 0 0 1 2.531.281 11.139 11.139 0 0 0 1.866-.821z" class="prefix__cls-7" data-name="Path 5918" transform="translate(-642.337 -55.467)"/>
        <path id="prefix__Path_5919" d="M696.187 37.477s-4.881-.3-4.311 3.129a.835.835 0 0 0 .434.88s.009-.257.5-.167a2.255 2.255 0 0 0 .532.026 1.109 1.109 0 0 0 .642-.268 3.879 3.879 0 0 0 1.908-2.813s.4-.489.385-.615l-.825.352a1.483 1.483 0 0 1 .06 1.089s-.027-1.067-.185-1.042c-.033 0-.429.206-.429.206a2.443 2.443 0 0 1 .12 1.789s.139-1.277-.271-1.714l-.581.338a2.567 2.567 0 0 1 .182 1.945 3.643 3.643 0 0 0-.3-1.861l-.525.41a2.505 2.505 0 0 1 .207 1.779s-.042-1.559-.321-1.67a3.2 3.2 0 0 0-.531.572s.365.771.139 1.17c0 0-.139-1.039-.257-1.043a3.459 3.459 0 0 0-.506 1.156 2.5 2.5 0 0 1 .4-1.227 1.377 1.377 0 0 0-.7.364s.072-.487.816-.529a3.2 3.2 0 0 1 .48-.554 3.019 3.019 0 0 0-1.19.137 1.344 1.344 0 0 1 1.324-.257l.52-.424a4.434 4.434 0 0 0-1.387.014 1.682 1.682 0 0 1 1.526-.11l.566-.339a5.147 5.147 0 0 0-1.326-.114 2.032 2.032 0 0 1 1.491.024l.4-.182s-.608-.119-.786-.137-.188-.068-.188-.068a2.106 2.106 0 0 1 1.143.128 4.845 4.845 0 0 0 .844-.374z" class="prefix__cls-7" data-name="Path 5919" transform="translate(-602.945 -32.658)"/>
        <ellipse id="prefix__Ellipse_1128" cx="3.459" cy=".584" data-name="Ellipse 1128" rx="3.459" ry=".584" transform="translate(132.442 91.903)" style="fill:#6c63ff;opacity:.1"/>
        <ellipse id="prefix__Ellipse_1129" cx="3.459" cy=".584" class="prefix__cls-1" data-name="Ellipse 1129" rx="3.459" ry=".584" transform="translate(.603 101.626)"/>
        <ellipse id="prefix__Ellipse_1130" cx="3.459" cy=".584" class="prefix__cls-1" data-name="Ellipse 1130" rx="3.459" ry=".584" transform="translate(20.685 102.359)"/>
        <g id="prefix__Group_14120" data-name="Group 14120">
            <ellipse id="prefix__Ellipse_1131" cx="5.165" cy=".874" class="prefix__cls-7" data-name="Ellipse 1131" rx="5.165" ry=".874" transform="translate(123.165 97.878)"/>
            <path id="prefix__Path_5920" d="M983.112 741.48a1.506 1.506 0 0 0 .492-.742.661.661 0 0 0-.344-.758c-.316-.121-.654.1-.909.32a1.215 1.215 0 0 1-.885.427 1.346 1.346 0 0 0 .417-1.26.53.53 0 0 0-.117-.257c-.175-.188-.493-.107-.7.041a2.62 2.62 0 0 0-.858 2.193 4.2 4.2 0 0 1-.013-.9.925.925 0 0 0-.339-.8 1.029 1.029 0 0 0-.514-.128 1.065 1.065 0 0 0-.839.239.828.828 0 0 0 .032 1.028 3.271 3.271 0 0 0 .87.7 1.925 1.925 0 0 1 .62.592.536.536 0 0 1 .046.107h1.883a5.3 5.3 0 0 0 1.158-.802z" class="prefix__cls-7" data-name="Path 5920" transform="translate(-852.646 -644.157)"/>
        </g>
        <g id="prefix__Group_14121" data-name="Group 14121">
            <path id="prefix__Path_5921" d="M30.9 673.78s.705.922-.325 2.312-1.882 2.569-1.542 3.438c0 0 1.557-2.587 2.826-2.623s.435-1.571-.959-3.127z" class="prefix__cls-7" data-name="Path 5921" transform="translate(-25.224 -587.228)"/>
            <path id="prefix__Path_5922" d="M53.192 681.547c0 .325-.036.588-.081.588s-.081-.257-.081-.588.045-.171.09-.171.072-.159.072.171z" class="prefix__cls-9" data-name="Path 5922" transform="translate(-46.205 -593.815)"/>
            <path id="prefix__Path_5923" d="M54.016 684.463c-.285.156-.534.249-.556.211s.193-.2.478-.353.173-.042.194 0 .168-.016-.116.142z" class="prefix__cls-9" data-name="Path 5923" transform="translate(-46.578 -596.346)"/>
            <path id="prefix__Path_5924" d="M4.309 673.78s-.705.922.326 2.312 1.882 2.569 1.542 3.438c0 0-1.556-2.587-2.826-2.623s-.435-1.571.958-3.127z" class="prefix__cls-7" data-name="Path 5924" transform="translate(-2.361 -587.228)"/>
            <path id="prefix__Path_5925" d="M4.85 681.547c0 .325.036.588.082.588s.081-.257.081-.588-.046-.171-.091-.171-.072-.159-.072.171z" class="prefix__cls-9" data-name="Path 5925" transform="translate(-4.214 -593.815)"/>
            <path id="prefix__Path_5926" d="M.19 684.463c.285.156.533.249.555.211s-.193-.2-.478-.353-.172-.042-.194 0-.173-.016.117.142z" class="prefix__cls-9" data-name="Path 5926" transform="translate(0 -596.346)"/>
            <path id="prefix__Path_5927" d="M6.6 710.409a7.233 7.233 0 0 0 2.569-.484c.6-.424 3.034-.929 3.183-.243s2.966 3.377.737 3.4a18.828 18.828 0 0 1-5.769-.709c-.593-.367-.72-1.964-.72-1.964z" data-name="Path 5927" transform="translate(-5.739 -618.224)" style="fill:#a8a8a8"/>
        </g>
    </g>
</svg>
